<svg width="214" height="286" viewBox="0 0 214 286" fill="none" xmlns="http://www.w3.org/2000/svg">
<path opacity="0.1" d="M107 53.625C77.4998 53.625 53.5 77.6808 53.5 107.25C53.5 136.819 77.4998 160.875 107 160.875C136.5 160.875 160.5 136.819 160.5 107.25C160.5 77.6808 136.5 53.625 107 53.625ZM107 143C87.3332 143 71.3333 126.963 71.3333 107.25C71.3333 87.5372 87.3332 71.5 107 71.5C126.667 71.5 142.667 87.5372 142.667 107.25C142.667 126.963 126.667 143 107 143ZM107 0C47.9053 0 0 48.0173 0 107.25C0 150.492 15.0302 162.568 96.0035 280.23C101.317 287.923 112.683 287.924 117.997 280.23C198.97 162.568 214 150.492 214 107.25C214 48.0173 166.095 0 107 0ZM107 264.735C29.3721 152.21 17.8333 143.276 17.8333 107.25C17.8333 83.3768 27.1083 60.9331 43.9497 44.0524C60.791 27.1717 83.1825 17.875 107 17.875C130.818 17.875 153.209 27.1717 170.05 44.0524C186.892 60.9331 196.167 83.3768 196.167 107.25C196.167 143.274 184.635 152.2 107 264.735Z" fill="#F61067"/>
</svg>
